<svg width="32" height="33" viewBox="0 0 32 33" fill="none" xmlns="http://www.w3.org/2000/svg">
<path d="M28 13.8229H4M21.3333 3.15625V8.48958M10.6667 3.15625V8.48958M10.4 29.8229H21.6C23.8402 29.8229 24.9603 29.8229 25.816 29.3869C26.5686 29.0034 27.1805 28.3915 27.564 27.6389C28 26.7832 28 25.6631 28 23.4229V12.2229C28 9.98271 28 8.8626 27.564 8.00695C27.1805 7.25431 26.5686 6.64238 25.816 6.25889C24.9603 5.82292 23.8402 5.82292 21.6 5.82292H10.4C8.15979 5.82292 7.03969 5.82292 6.18404 6.25889C5.43139 6.64238 4.81947 7.25431 4.43597 8.00695C4 8.8626 4 9.98271 4 12.2229V23.4229C4 25.6631 4 26.7832 4.43597 27.6389C4.81947 28.3915 5.43139 29.0034 6.18404 29.3869C7.03969 29.8229 8.15979 29.8229 10.4 29.8229Z" stroke="#777777" stroke-width="2" stroke-linecap="round" stroke-linejoin="round"/>
</svg>
