<svg width="32" height="33" viewBox="0 0 32 33" fill="none" xmlns="http://www.w3.org/2000/svg">
<path d="M26.6667 13.1563V9.55625C26.6667 7.31604 26.6667 6.19594 26.2307 5.34029C25.8472 4.58764 25.2353 3.97572 24.4826 3.59222C23.627 3.15625 22.5069 3.15625 20.2667 3.15625H11.7333C9.49313 3.15625 8.37303 3.15625 7.51738 3.59222C6.76473 3.97572 6.15281 4.58764 5.76932 5.34029C5.33334 6.19594 5.33334 7.31604 5.33334 9.55625V23.4229C5.33334 25.6631 5.33334 26.7832 5.76932 27.6389C6.15281 28.3915 6.76473 29.0034 7.51738 29.3869C8.37303 29.8229 9.49313 29.8229 11.7333 29.8229H18.6667M18.6667 15.1563H10.6667M13.3333 20.4896H10.6667M21.3333 9.82292H10.6667M22 20.4926C22.2349 19.8247 22.6986 19.2616 23.309 18.9029C23.9193 18.5442 24.6369 18.4131 25.3347 18.5327C26.0325 18.6524 26.6653 19.0152 27.1213 19.5568C27.5772 20.0984 27.8267 20.7839 27.8257 21.4918C27.8257 23.4903 24.8279 24.4896 24.8279 24.4896M24.8665 28.4896H24.8799" stroke="#777777" stroke-width="2" stroke-linecap="round" stroke-linejoin="round"/>
</svg>
