<svg width="24" height="25" viewBox="0 0 24 25" fill="none" xmlns="http://www.w3.org/2000/svg">
<path d="M11.4753 0H0.280029V1.92418C0.280029 3.07869 1.18964 3.9883 2.34415 3.9883H11.5102C16.0233 4.02328 19.6967 7.69671 19.6967 12.2448C19.6967 16.7578 16.0233 20.4663 11.4753 20.4663H2.34415C1.18964 20.4663 0.280029 21.3759 0.280029 22.5304V24.4545H5.38783C8.95631 24.4545 10.4257 24.4895 11.0204 24.4895H11.4753C18.2274 24.4895 23.72 18.9969 23.72 12.2448C23.72 8.92119 22.4256 5.8425 20.0816 3.49851C17.7725 1.22448 14.7289 0 11.4753 0Z" fill="white"/>
<circle cx="3.35985" cy="12.4285" r="2.73321" fill="#C8FF88"/>
</svg>
