<svg width="32" height="33" viewBox="0 0 32 33" fill="none" xmlns="http://www.w3.org/2000/svg">
<path d="M16.0002 20.4889L12.0002 16.4889M16.0002 20.4889C17.8626 19.7806 19.6493 18.8872 21.3335 17.8223M16.0002 20.4889V27.1556C16.0002 27.1556 20.0402 26.4223 21.3335 24.4889C22.7735 22.3289 21.3335 17.8223 21.3335 17.8223M12.0002 16.4889C12.7097 14.6482 13.6031 12.8837 14.6668 11.2223C16.2204 8.73825 18.3837 6.693 20.9508 5.28106C23.518 3.86912 26.4037 3.13743 29.3335 3.1556C29.3335 6.78227 28.2935 13.1556 21.3335 17.8223M12.0002 16.4889H5.3335C5.3335 16.4889 6.06683 12.4489 8.00016 11.1556C10.1602 9.7156 14.6668 11.1556 14.6668 11.1556M6.00016 22.4889C4.00016 24.1689 3.3335 29.1556 3.3335 29.1556C3.3335 29.1556 8.32016 28.4889 10.0002 26.4889C10.9468 25.3689 10.9335 23.6489 9.88016 22.6089C9.3619 22.1143 8.67922 21.8285 7.96313 21.8063C7.24704 21.7842 6.548 22.0273 6.00016 22.4889Z" stroke="#C8FF88" stroke-width="2" stroke-linecap="round" stroke-linejoin="round"/>
</svg>
