<svg width="32" height="33" viewBox="0 0 32 33" fill="none" xmlns="http://www.w3.org/2000/svg">
<path d="M15.0435 5.09384C15.3508 4.47126 15.5045 4.15996 15.7131 4.06051C15.8946 3.97397 16.1054 3.97397 16.2869 4.06051C16.4955 4.15996 16.6492 4.47126 16.9565 5.09384L19.8721 11.0005C19.9628 11.1843 20.0081 11.2762 20.0744 11.3475C20.1331 11.4107 20.2035 11.4619 20.2817 11.4982C20.37 11.5393 20.4715 11.5541 20.6743 11.5838L27.196 12.537C27.8827 12.6374 28.2261 12.6876 28.385 12.8553C28.5233 13.0013 28.5883 13.2018 28.562 13.4011C28.5317 13.6302 28.2831 13.8723 27.7859 14.3566L23.0686 18.9513C22.9215 19.0945 22.848 19.1662 22.8005 19.2514C22.7585 19.3268 22.7316 19.4097 22.7212 19.4954C22.7095 19.5922 22.7268 19.6934 22.7615 19.8957L23.8746 26.3856C23.992 27.0701 24.0507 27.4123 23.9404 27.6154C23.8444 27.7921 23.6738 27.9161 23.4761 27.9527C23.2488 27.9948 22.9415 27.8332 22.3268 27.51L16.4965 24.4439C16.3148 24.3483 16.224 24.3006 16.1283 24.2818C16.0436 24.2652 15.9564 24.2652 15.8717 24.2818C15.776 24.3006 15.6852 24.3483 15.5035 24.4439L9.67321 27.51C9.05853 27.8332 8.75119 27.9948 8.52394 27.9527C8.32622 27.9161 8.1556 27.7921 8.05962 27.6154C7.94931 27.4123 8.00801 27.0701 8.12541 26.3856L9.23849 19.8957C9.27319 19.6934 9.29054 19.5922 9.2788 19.4954C9.26841 19.4097 9.24146 19.3268 9.19945 19.2514C9.152 19.1662 9.07848 19.0945 8.93142 18.9513L4.21405 14.3566C3.71686 13.8723 3.46826 13.6302 3.43801 13.4011C3.41169 13.2018 3.47671 13.0013 3.61498 12.8553C3.77389 12.6876 4.11727 12.6374 4.80403 12.537L11.3257 11.5838C11.5285 11.5541 11.6299 11.5393 11.7183 11.4982C11.7965 11.4619 11.8669 11.4107 11.9256 11.3475C11.9919 11.2762 12.0372 11.1843 12.1279 11.0005L15.0435 5.09384Z" stroke="#777777" stroke-width="2" stroke-linecap="round" stroke-linejoin="round"/>
</svg>
